<?xml version="1.0" encoding="UTF-8" standalone="no"?>
<svg xmlns="http://www.w3.org/2000/svg" version="1.1" id="stars" x="0px" y="0px" viewBox="0 0 80 16" width="80" height="16">
  <defs>
    <clipPath id="starsMask">
      <path d="m 72,0.39569841 2.473,5.00899999 5.527,0.803 -4,3.8989996 0.944,5.506 -4.944,-2.599 -4.944,2.599 0.944,-5.506 -4,-3.8989996 5.527,-0.803 z m -16,0 2.473,5.00899999 5.527,0.803 -4,3.8989996 0.944,5.506 -4.944,-2.599 -4.944,2.599 0.944,-5.506 -4,-3.8989996 5.527,-0.803 z m -16,0 2.473,5.00899999 5.527,0.803 -4,3.8989996 0.944,5.506 -4.944,-2.599 -4.944,2.599 0.944,-5.506 -4,-3.8989996 5.527,-0.803 z m -16,0 2.473,5.00899999 5.527,0.803 -4,3.8989996 0.944,5.506 -4.944,-2.599 -4.944,2.599 0.944,-5.506 -4,-3.8989996 5.527,-0.803 z m -16,0 2.473,5.00899999 5.527,0.803 -4,3.8989996 0.944,5.506 -4.944,-2.599 -4.944,2.599 0.944,-5.506 -4,-3.8989996 5.527,-0.803 z" />
    </clipPath>
  </defs>
  <g clip-path="url(#starsMask)">
    <rect style="fill:#e7e7e7" id="grayRect" width="80" height="16" x="0" y="0" />
    <rect style="fill:#fcde00" id="yellowRect" width="40" height="16" x="0" y="0" />
  </g>
</svg>
